<svg version="1.1" id="Layer_1" xmlns="http://www.w3.org/2000/svg" xmlns:xlink="http://www.w3.org/1999/xlink" x="0px" y="0px"
	 width="100%" viewBox="0 0 512 512" enable-background="new 0 0 512 512" xml:space="preserve">
<path fill="#000000" opacity="1.000000" stroke="none" 
	d="
M234.000000,1.000000 
	C251.687561,1.000000 269.375122,1.000000 287.818756,1.200332 
	C290.901276,3.294179 293.722137,2.241069 296.286438,2.705188 
	C326.672150,8.204746 355.710083,17.411909 382.767090,32.707481 
	C411.642639,49.031067 436.255554,70.156578 457.156677,95.812469 
	C480.388885,124.329742 496.420258,156.431931 505.693329,191.976974 
	C509.295746,205.785675 511.589539,219.814117 513.000000,234.000000 
	C513.000000,249.020889 513.000000,264.041779 512.999512,279.935120 
	C511.697876,289.806763 510.834229,298.895355 509.017578,307.789276 
	C502.198364,341.174103 489.419189,372.083191 470.402039,400.470093 
	C456.406677,421.360962 439.428986,439.527954 420.317566,455.587921 
	C401.565155,471.346161 380.728027,484.038696 358.029388,493.526947 
	C340.673431,500.781891 322.818909,506.214020 304.290314,509.607361 
	C299.186005,510.542175 293.727692,510.259491 289.000000,513.000000 
	C267.979095,513.000000 246.958206,513.000000 225.235474,512.725586 
	C223.783646,512.130493 223.052795,511.590088 222.280731,511.522858 
	C213.347748,510.744507 204.644180,508.703766 195.955948,506.660156 
	C172.368683,501.112000 150.103867,492.170166 129.102509,480.101379 
	C101.292465,464.119873 77.482628,443.430328 57.221268,418.628387 
	C42.229179,400.276489 29.997356,380.241425 20.744331,358.391510 
	C13.346660,340.922791 7.853043,322.926025 4.402843,304.247406 
	C3.462884,299.158691 3.927160,293.668335 1.000000,289.000000 
	C1.000000,267.979095 1.000000,246.958206 1.284266,225.239929 
	C3.311016,222.531921 2.316317,220.056366 2.711364,217.816895 
	C7.142888,192.695038 14.145935,168.380341 25.257948,145.328674 
	C43.355698,107.785240 69.357300,76.671616 102.399124,51.513702 
	C127.212250,32.621086 154.710495,18.845499 184.804916,10.273494 
	C200.947479,5.675500 217.341446,2.710187 234.000000,1.000000 
M55.539967,142.853058 
	C47.949074,155.625992 42.044582,169.198273 37.378632,183.246124 
	C31.456663,201.075470 27.743933,219.349365 26.153294,238.178146 
	C24.304766,260.059631 25.501045,281.678406 29.855564,303.050323 
	C34.757805,327.110382 43.337959,349.906555 55.575397,371.313354 
	C68.899132,394.620392 85.731491,415.048035 105.981606,432.522461 
	C124.312744,448.340851 144.710831,461.046051 167.100601,470.517670 
	C191.796326,480.964783 217.560898,486.882721 244.221863,488.469574 
	C258.463562,489.317230 272.752289,488.638519 286.995544,486.744049 
	C311.081055,483.540344 334.105072,476.858856 355.947296,466.382782 
	C382.879028,453.465576 406.571930,436.137970 426.862823,414.006683 
	C440.899994,398.696320 452.832916,382.059113 462.506073,363.763763 
	C477.868500,334.708191 486.247498,303.585205 488.455170,270.917175 
	C489.813690,250.813690 488.425598,230.686127 484.191284,210.951492 
	C479.011169,186.808823 470.797546,163.749603 458.192474,142.327820 
	C446.237823,122.011406 431.938232,103.742119 414.633942,87.632996 
	C395.064026,69.414711 373.149139,55.099152 348.726349,44.350594 
	C323.686829,33.330631 297.445190,27.245110 270.288788,25.560659 
	C253.719421,24.532904 237.131897,25.559319 220.615753,28.209612 
	C186.755569,33.643044 155.689011,45.937923 127.371841,65.106140 
	C111.802910,75.644928 97.612617,87.846375 85.078552,101.976952 
	C74.013718,114.451134 64.072525,127.672951 55.539967,142.853058 
z"/>
<path fill="#000000" opacity="1.000000" stroke="none" 
	d="
M315.373596,229.056213 
	C314.353485,237.720566 313.231445,245.925949 312.380737,254.159348 
	C312.097260,256.902649 310.647858,257.375061 308.400513,257.368103 
	C301.403809,257.346375 294.401520,257.549591 287.412140,257.327606 
	C282.861908,257.183075 281.287506,258.933411 281.307220,263.486694 
	C281.440674,294.305573 281.273071,325.125916 281.467133,355.944122 
	C281.498138,360.873535 280.241211,362.660065 275.067535,362.508514 
	C263.083466,362.157410 251.077209,362.221741 239.089294,362.508606 
	C234.190567,362.625824 232.473389,361.253174 232.513275,356.074005 
	C232.746719,325.756104 232.631607,295.435516 232.625198,265.115814 
	C232.623566,257.445587 232.591461,257.425415 224.721146,257.388184 
	C221.056213,257.370850 217.387711,257.266937 213.727371,257.392853 
	C210.696213,257.497131 209.592957,256.154663 209.619232,253.218842 
	C209.701218,244.057144 209.711914,234.893555 209.612228,225.732193 
	C209.579514,222.725754 210.783813,221.535706 213.759018,221.626968 
	C217.753098,221.749481 221.754303,221.646469 225.752411,221.628876 
	C232.364044,221.599808 232.467987,221.386108 232.659164,214.961746 
	C232.896149,206.998444 232.740601,199.057861 233.393616,191.062119 
	C235.319183,167.484070 247.294662,156.313065 267.071655,152.930740 
	C282.463715,150.298340 297.954742,152.165741 313.392792,151.699310 
	C315.508667,151.635376 316.314758,152.900330 316.313232,154.873825 
	C316.305634,164.868790 316.265686,174.864044 316.333130,184.858551 
	C316.353516,187.880173 314.641357,188.414444 312.162079,188.396362 
	C306.165192,188.352646 300.167053,188.342499 294.170532,188.412628 
	C284.409332,188.526794 281.405670,191.603531 281.380707,201.392349 
	C281.367950,206.390060 281.522491,211.393250 281.334076,216.383865 
	C281.186371,220.295685 282.830994,221.740784 286.665741,221.665741 
	C294.492493,221.512604 302.324493,221.606171 310.154175,221.638794 
	C311.952484,221.646286 313.750122,221.818237 315.838226,221.930038 
	C315.666534,224.418823 315.522064,226.513489 315.373596,229.056213 
z"/>
</svg>