<svg version="1.1" id="Layer_1" xmlns="http://www.w3.org/2000/svg" xmlns:xlink="http://www.w3.org/1999/xlink" x="0px" y="0px"
	 width="100%" viewBox="0 0 512 512" enable-background="new 0 0 512 512" xml:space="preserve">
<path fill="#010100" opacity="1.000000" stroke="none" 
	d="
M292.000000,513.000000 
	C194.690292,513.000000 97.880577,513.000000 1.035435,513.000000 
	C1.035435,342.398590 1.035435,171.797195 1.035435,1.097890 
	C171.559723,1.097890 342.119537,1.097890 512.839661,1.097890 
	C512.839661,171.666550 512.839661,342.333252 512.839661,513.000000 
	C439.463837,513.000000 365.981903,513.000000 292.000000,513.000000 
M91.276672,178.595886 
	C93.170601,181.681259 95.064537,184.766632 97.280312,188.376312 
	C98.458023,186.431900 99.319145,185.072861 100.119713,183.679047 
	C112.229172,162.595963 124.230591,141.449951 136.476913,120.446716 
	C142.469131,110.169670 144.280136,99.382637 141.984299,87.784134 
	C138.634384,70.860374 123.487549,55.418472 107.192192,52.877689 
	C91.069069,48.429138 72.477913,54.959366 61.340015,68.983459 
	C50.137909,83.088417 48.206295,103.148994 57.001690,118.712234 
	C68.209297,138.543839 79.732712,158.196976 91.276672,178.595886 
M485.416107,118.402069 
	C439.513611,108.550438 393.611145,98.698807 347.250183,88.748779 
	C347.250183,90.614731 347.250183,91.598549 347.250183,92.582367 
	C347.249969,203.056473 347.269440,313.530609 347.163177,424.004608 
	C347.159668,427.644226 348.340820,428.692291 351.753876,429.399231 
	C374.394592,434.088898 396.967987,439.102142 419.583588,443.914642 
	C441.702118,448.621338 463.844818,453.214478 486.721619,458.158020 
	C490.345825,458.949371 493.970001,459.740723 497.821930,460.581787 
	C497.821930,346.952423 497.821930,234.134583 497.821930,120.923660 
	C493.823120,120.227081 489.922882,119.547668 485.416107,118.402069 
M332.239594,366.500031 
	C332.239594,274.075409 332.239594,181.650803 332.239594,88.981979 
	C330.774048,89.229317 329.959076,89.335960 329.157715,89.506569 
	C299.707733,95.776306 270.251282,102.016129 240.819412,108.369690 
	C236.892090,109.217484 234.174225,108.093956 231.628113,105.080605 
	C230.613403,103.879692 228.301208,102.903877 226.795364,103.149254 
	C221.881699,103.949921 217.067444,105.360657 212.342758,106.505737 
	C211.723770,113.364868 210.524399,114.740257 204.077530,116.192116 
	C196.678741,117.858353 189.272934,119.493431 182.045441,121.103012 
	C182.045441,234.480637 182.045441,347.241089 182.045441,460.219299 
	C183.646957,460.064697 184.976593,460.067169 186.247314,459.794678 
	C233.597549,449.641907 280.931976,439.414795 328.308868,429.388123 
	C331.842896,428.640198 332.310028,427.038635 332.292847,423.991577 
	C332.186584,405.161591 332.239594,386.330658 332.239594,366.500031 
M15.995619,217.500000 
	C15.995619,287.778473 15.995619,358.056946 15.995619,428.425690 
	C66.424805,439.220947 116.313568,449.900543 166.519928,460.648102 
	C166.519928,347.142273 166.519928,234.223312 166.519928,121.022453 
	C162.325806,120.166008 158.309769,119.345917 154.390823,118.545654 
	C153.008530,121.255302 151.969788,123.525780 150.732101,125.682068 
	C135.573303,152.091705 120.396484,178.491013 105.198608,204.878189 
	C100.211609,213.536819 94.258537,213.562180 89.281921,204.933243 
	C76.063354,182.013641 63.115757,158.933701 49.601601,136.190140 
	C41.724895,122.934059 35.262852,109.482292 36.786167,93.281998 
	C29.803251,91.755569 23.182423,90.308296 15.995619,88.737297 
	C15.995619,131.599564 15.995619,174.049789 15.995619,217.500000 
z"/>
<path fill="#FEB308" opacity="1.000000" stroke="none" 
	d="
M485.976929,457.857483 
	C463.844818,453.214478 441.702118,448.621338 419.583588,443.914642 
	C396.967987,439.102142 374.394592,434.088898 351.753876,429.399231 
	C348.340820,428.692291 347.159668,427.644226 347.163177,424.004608 
	C347.269440,313.530609 347.249969,203.056473 347.250183,92.582367 
	C347.250183,91.598549 347.250183,90.614731 347.250183,88.748779 
	C393.611145,98.698807 439.513611,108.550438 485.705811,119.113159 
	C485.989319,232.501984 485.983124,345.179749 485.976929,457.857483 
M483.779205,200.225403 
	C483.779144,192.400253 483.788422,184.575089 483.776367,176.749954 
	C483.764038,168.752640 482.220337,166.823944 474.472046,165.172272 
	C440.678680,157.968628 406.883392,150.773987 373.088531,143.577530 
	C366.000244,142.068130 362.190613,145.033417 362.125214,152.281555 
	C362.047150,160.938538 362.088074,169.596802 362.110809,178.254425 
	C362.129181,185.250046 363.959869,187.449570 370.688538,188.883636 
	C404.324097,196.052322 437.958771,203.225235 471.587128,210.427750 
	C480.233215,212.279587 483.413910,209.902527 483.779205,200.225403 
M409.485565,222.060989 
	C397.974487,219.655472 386.458099,217.275116 374.954254,214.835587 
	C367.307617,213.214020 363.116608,214.881851 362.104553,220.063309 
	C361.130981,225.047668 364.576813,228.324249 372.119965,229.919632 
	C393.508514,234.443344 414.882202,239.037842 436.257904,243.622147 
	C448.890533,246.331345 461.506622,249.118317 474.149689,251.777573 
	C478.526398,252.698135 482.341370,250.451279 483.531860,246.336853 
	C484.748016,242.133698 482.766510,239.208817 479.213562,237.312393 
	C477.793365,236.554352 476.043793,236.382217 474.425018,236.031967 
	C453.059479,231.409180 431.690521,226.802185 409.485565,222.060989 
z"/>
<path fill="#E79506" opacity="1.000000" stroke="none" 
	d="
M332.239624,367.000061 
	C332.239594,386.330658 332.186584,405.161591 332.292847,423.991577 
	C332.310028,427.038635 331.842896,428.640198 328.308868,429.388123 
	C280.931976,439.414795 233.597549,449.641907 186.247314,459.794678 
	C184.976593,460.067169 183.646957,460.064697 182.045441,460.219299 
	C182.045441,347.241089 182.045441,234.480637 182.045441,121.103012 
	C189.272934,119.493431 196.678741,117.858353 204.077530,116.192116 
	C210.524399,114.740257 211.723770,113.364868 212.342758,106.505737 
	C217.067444,105.360657 221.881699,103.949921 226.795364,103.149254 
	C228.301208,102.903877 230.613403,103.879692 231.628113,105.080605 
	C234.174225,108.093956 236.892090,109.217484 240.819412,108.369690 
	C270.251282,102.016129 299.707733,95.776306 329.157715,89.506569 
	C329.959076,89.335960 330.774048,89.229317 332.239594,88.981979 
	C332.239594,181.650803 332.239594,274.075409 332.239624,367.000061 
M196.155869,163.567413 
	C196.155853,166.399719 196.155853,169.232025 196.155853,172.064331 
	C196.155991,211.549881 196.143127,251.035431 196.166946,290.520966 
	C196.171875,298.687103 199.559158,301.646454 207.364120,299.994110 
	C241.842712,292.694885 276.298340,285.287201 310.762329,277.918976 
	C315.539734,276.897583 317.840118,273.901978 317.840057,269.060364 
	C317.839325,224.076843 317.840271,179.093323 317.839996,134.109802 
	C317.839996,133.776642 317.851135,133.441544 317.821198,133.110611 
	C317.302887,127.387566 313.553497,124.443260 307.877869,125.648033 
	C272.896301,133.073563 237.929810,140.570312 202.959061,148.046875 
	C198.623337,148.973816 196.375290,151.708847 196.182083,156.097183 
	C196.086884,158.259003 196.159332,160.428207 196.155869,163.567413 
M304.855743,319.294281 
	C307.592224,318.656006 310.432220,318.293274 313.040436,317.313507 
	C316.760101,315.916199 318.543640,312.822754 317.763092,308.973541 
	C317.057159,305.492310 314.808594,302.967682 310.862518,302.925690 
	C309.055084,302.906403 307.210449,303.129669 305.438690,303.506439 
	C282.753754,308.330688 260.081085,313.212769 237.400650,318.058350 
	C226.215408,320.448090 215.015045,322.767212 203.832413,325.168945 
	C198.437164,326.327698 195.307861,330.182495 196.140503,334.466095 
	C197.062958,339.211761 201.221085,341.423950 206.907364,340.230591 
	C212.905579,338.971771 218.916458,337.772919 224.911102,336.497559 
	C251.303452,330.882538 277.691925,325.249359 304.855743,319.294281 
M215.458557,373.957520 
	C218.700699,373.275757 221.944931,372.603760 225.184677,371.910767 
	C253.355408,365.884888 281.527466,359.865173 309.693726,353.818481 
	C315.507416,352.570435 318.723511,348.788696 317.842834,344.398682 
	C316.857391,339.486481 312.722260,337.451477 306.557861,338.760101 
	C287.115631,342.887299 267.659760,346.950592 248.224548,351.110596 
	C233.154541,354.336334 218.100662,357.638519 203.054520,360.973938 
	C198.158386,362.059265 195.430954,365.627533 196.117935,369.709808 
	C196.805801,373.797333 200.187958,376.403320 204.872803,375.938873 
	C208.149887,375.614014 211.366791,374.681793 215.458557,373.957520 
M317.091827,384.389435 
	C319.109253,377.419647 315.250427,372.630219 308.181183,373.951263 
	C296.946136,376.050812 285.797455,378.613434 274.613739,380.987000 
	C250.784866,386.044250 226.950684,391.076843 203.133682,396.189331 
	C198.142441,397.260742 195.228821,401.360931 196.179642,405.518158 
	C197.179276,409.888885 201.182175,412.264282 206.170578,411.206116 
	C241.006073,403.816589 275.841461,396.425537 310.637817,388.855286 
	C312.856781,388.372528 314.748383,386.385071 317.091827,384.389435 
z"/>
<path fill="#FCB208" opacity="1.000000" stroke="none" 
	d="
M15.995619,217.000000 
	C15.995619,174.049789 15.995619,131.599564 15.995619,88.737297 
	C23.182423,90.308296 29.803251,91.755569 36.786167,93.281998 
	C35.262852,109.482292 41.724895,122.934059 49.601601,136.190140 
	C63.115757,158.933701 76.063354,182.013641 89.281921,204.933243 
	C94.258537,213.562180 100.211609,213.536819 105.198608,204.878189 
	C120.396484,178.491013 135.573303,152.091705 150.732101,125.682068 
	C151.969788,123.525780 153.008530,121.255302 154.390823,118.545654 
	C158.309769,119.345917 162.325806,120.166008 166.519928,121.022453 
	C166.519928,234.223312 166.519928,347.142273 166.519928,460.648102 
	C116.313568,449.900543 66.424805,439.220947 15.995619,428.425690 
	C15.995619,358.056946 15.995619,287.778473 15.995619,217.000000 
M38.923615,401.845032 
	C72.602455,409.029541 106.284119,416.200836 139.958206,423.407501 
	C148.846741,425.309814 152.042358,422.786438 152.043915,413.637878 
	C152.051376,369.984253 152.049240,326.330597 152.045837,282.676971 
	C152.045197,274.310333 150.784988,272.811035 142.396683,271.016602 
	C108.908920,263.852875 75.421677,256.686798 41.936119,249.512833 
	C34.111835,247.836548 30.664682,250.580917 30.659424,258.761414 
	C30.630938,303.081512 30.633837,347.401611 30.657579,391.721710 
	C30.661100,398.293457 31.797504,399.698669 38.923615,401.845032 
M110.011848,229.535217 
	C87.019821,224.647614 64.030991,219.744858 41.033474,214.883209 
	C35.352486,213.682266 31.352484,216.026260 30.521227,220.892029 
	C29.772711,225.273468 32.896561,228.774033 38.407417,229.947433 
	C59.607529,234.461456 80.792961,239.044464 101.993912,243.554504 
	C115.596001,246.448059 129.189529,249.394135 142.841492,252.034348 
	C147.692413,252.972473 151.193817,250.495209 151.962662,246.518951 
	C152.828354,242.041885 150.547379,238.232727 145.818619,237.183578 
	C134.179138,234.601181 122.486130,232.260117 110.011848,229.535217 
z"/>
<path fill="#E99706" opacity="1.000000" stroke="none" 
	d="
M486.349274,458.007751 
	C485.983124,345.179749 485.989319,232.501984 486.009094,119.346252 
	C489.922882,119.547668 493.823120,120.227081 497.821930,120.923660 
	C497.821930,234.134583 497.821930,346.952423 497.821930,460.581787 
	C493.970001,459.740723 490.345825,458.949371 486.349274,458.007751 
z"/>
<path fill="#FB4311" opacity="1.000000" stroke="none" 
	d="
M91.119987,177.927048 
	C79.732712,158.196976 68.209297,138.543839 57.001690,118.712234 
	C48.206295,103.148994 50.137909,83.088417 61.340015,68.983459 
	C72.477913,54.959366 91.069069,48.429138 107.740868,53.301010 
	C109.315765,54.560555 110.395065,55.340031 111.359650,56.242165 
	C117.935219,62.392014 124.202324,68.756996 125.641586,77.981720 
	C124.611557,76.920334 123.943062,75.956573 123.157722,75.099907 
	C113.663879,64.743805 101.965591,60.637989 88.398933,64.407555 
	C74.274391,68.332138 65.649170,78.065651 63.550499,92.632111 
	C61.601933,106.156715 66.754051,117.144081 77.771233,125.164192 
	C91.039429,134.822968 113.878670,134.552017 126.907700,114.859085 
	C126.120804,117.411858 125.598518,119.711182 124.485199,121.675552 
	C117.133430,134.647263 109.734467,147.593903 102.181618,160.449249 
	C98.690918,166.390625 94.819046,172.108078 91.119987,177.927048 
z"/>
<path fill="#A63417" opacity="1.000000" stroke="none" 
	d="
M91.198334,178.261475 
	C94.819046,172.108078 98.690918,166.390625 102.181618,160.449249 
	C109.734467,147.593903 117.133430,134.647263 124.485199,121.675552 
	C125.598518,119.711182 126.120804,117.411858 126.931824,114.523079 
	C133.290131,102.008507 132.499176,90.414665 126.249207,78.856705 
	C126.245964,78.507179 126.079971,78.260742 125.951080,78.034378 
	C125.988190,78.054459 125.948837,78.129105 125.948837,78.129105 
	C124.202324,68.756996 117.935219,62.392014 111.359650,56.242165 
	C110.395065,55.340031 109.315765,54.560555 108.117981,53.442581 
	C123.487549,55.418472 138.634384,70.860374 141.984299,87.784134 
	C144.280136,99.382637 142.469131,110.169670 136.476913,120.446716 
	C124.230591,141.449951 112.229172,162.595963 100.119713,183.679047 
	C99.319145,185.072861 98.458023,186.431900 97.280312,188.376312 
	C95.064537,184.766632 93.170601,181.681259 91.198334,178.261475 
z"/>
<path fill="#040301" opacity="1.000000" stroke="none" 
	d="
M483.779114,200.683929 
	C483.413910,209.902527 480.233215,212.279587 471.587128,210.427750 
	C437.958771,203.225235 404.324097,196.052322 370.688538,188.883636 
	C363.959869,187.449570 362.129181,185.250046 362.110809,178.254425 
	C362.088074,169.596802 362.047150,160.938538 362.125214,152.281555 
	C362.190613,145.033417 366.000244,142.068130 373.088531,143.577530 
	C406.883392,150.773987 440.678680,157.968628 474.472046,165.172272 
	C482.220337,166.823944 483.764038,168.752640 483.776367,176.749954 
	C483.788422,184.575089 483.779144,192.400253 483.779114,200.683929 
M460.719940,192.818680 
	C463.254700,193.255142 465.789490,193.691605 468.561096,194.168854 
	C468.561096,188.959396 468.561096,184.346939 468.561096,179.337067 
	C438.156647,172.821976 407.876129,166.333450 377.341980,159.790558 
	C377.341980,165.180328 377.341980,169.950272 377.341980,174.871750 
	C404.990417,180.809280 432.446533,186.705505 460.719940,192.818680 
z"/>
<path fill="#050300" opacity="1.000000" stroke="none" 
	d="
M409.903992,222.126114 
	C431.690521,226.802185 453.059479,231.409180 474.425018,236.031967 
	C476.043793,236.382217 477.793365,236.554352 479.213562,237.312393 
	C482.766510,239.208817 484.748016,242.133698 483.531860,246.336853 
	C482.341370,250.451279 478.526398,252.698135 474.149689,251.777573 
	C461.506622,249.118317 448.890533,246.331345 436.257904,243.622147 
	C414.882202,239.037842 393.508514,234.443344 372.119965,229.919632 
	C364.576813,228.324249 361.130981,225.047668 362.104553,220.063309 
	C363.116608,214.881851 367.307617,213.214020 374.954254,214.835587 
	C386.458099,217.275116 397.974487,219.655472 409.903992,222.126114 
z"/>
<path fill="#040200" opacity="1.000000" stroke="none" 
	d="
M196.155884,163.080750 
	C196.159332,160.428207 196.086884,158.259003 196.182083,156.097183 
	C196.375290,151.708847 198.623337,148.973816 202.959061,148.046875 
	C237.929810,140.570312 272.896301,133.073563 307.877869,125.648033 
	C313.553497,124.443260 317.302887,127.387566 317.821198,133.110611 
	C317.851135,133.441544 317.839996,133.776642 317.839996,134.109802 
	C317.840271,179.093323 317.839325,224.076843 317.840057,269.060364 
	C317.840118,273.901978 315.539734,276.897583 310.762329,277.918976 
	C276.298340,285.287201 241.842712,292.694885 207.364120,299.994110 
	C199.559158,301.646454 196.171875,298.687103 196.166946,290.520966 
	C196.143127,251.035431 196.155991,211.549881 196.155853,172.064331 
	C196.155853,169.232025 196.155853,166.399719 196.155884,163.080750 
M302.870239,199.500000 
	C302.870239,180.548401 302.870239,161.596802 302.870239,142.371704 
	C300.740112,142.672119 299.096924,142.801163 297.499756,143.144424 
	C270.538116,148.938736 243.608673,154.888367 216.598099,160.443832 
	C212.266022,161.334824 211.013321,162.836334 211.033035,167.174347 
	C211.201691,204.303162 211.129730,241.433075 211.129715,278.562653 
	C211.129715,280.155823 211.129715,281.748962 211.129715,283.589752 
	C213.281784,283.292999 214.766235,283.185211 216.207169,282.875244 
	C243.497879,277.004028 270.762299,271.007019 298.092987,265.328918 
	C302.186829,264.478394 302.970795,262.663422 302.941589,258.941071 
	C302.788788,239.461716 302.870117,219.980545 302.870239,199.500000 
z"/>
<path fill="#040300" opacity="1.000000" stroke="none" 
	d="
M304.468781,319.458496 
	C277.691925,325.249359 251.303452,330.882538 224.911102,336.497559 
	C218.916458,337.772919 212.905579,338.971771 206.907364,340.230591 
	C201.221085,341.423950 197.062958,339.211761 196.140503,334.466095 
	C195.307861,330.182495 198.437164,326.327698 203.832413,325.168945 
	C215.015045,322.767212 226.215408,320.448090 237.400650,318.058350 
	C260.081085,313.212769 282.753754,308.330688 305.438690,303.506439 
	C307.210449,303.129669 309.055084,302.906403 310.862518,302.925690 
	C314.808594,302.967682 317.057159,305.492310 317.763092,308.973541 
	C318.543640,312.822754 316.760101,315.916199 313.040436,317.313507 
	C310.432220,318.293274 307.592224,318.656006 304.468781,319.458496 
z"/>
<path fill="#040300" opacity="1.000000" stroke="none" 
	d="
M215.034561,373.989166 
	C211.366791,374.681793 208.149887,375.614014 204.872803,375.938873 
	C200.187958,376.403320 196.805801,373.797333 196.117935,369.709808 
	C195.430954,365.627533 198.158386,362.059265 203.054520,360.973938 
	C218.100662,357.638519 233.154541,354.336334 248.224548,351.110596 
	C267.659760,346.950592 287.115631,342.887299 306.557861,338.760101 
	C312.722260,337.451477 316.857391,339.486481 317.842834,344.398682 
	C318.723511,348.788696 315.507416,352.570435 309.693726,353.818481 
	C281.527466,359.865173 253.355408,365.884888 225.184677,371.910767 
	C221.944931,372.603760 218.700699,373.275757 215.034561,373.989166 
z"/>
<path fill="#040200" opacity="1.000000" stroke="none" 
	d="
M316.942047,384.743530 
	C314.748383,386.385071 312.856781,388.372528 310.637817,388.855286 
	C275.841461,396.425537 241.006073,403.816589 206.170578,411.206116 
	C201.182175,412.264282 197.179276,409.888885 196.179642,405.518158 
	C195.228821,401.360931 198.142441,397.260742 203.133682,396.189331 
	C226.950684,391.076843 250.784866,386.044250 274.613739,380.987000 
	C285.797455,378.613434 296.946136,376.050812 308.181183,373.951263 
	C315.250427,372.630219 319.109253,377.419647 316.942047,384.743530 
z"/>
<path fill="#040403" opacity="1.000000" stroke="none" 
	d="
M38.527050,401.751648 
	C31.797504,399.698669 30.661100,398.293457 30.657579,391.721710 
	C30.633837,347.401611 30.630938,303.081512 30.659424,258.761414 
	C30.664682,250.580917 34.111835,247.836548 41.936119,249.512833 
	C75.421677,256.686798 108.908920,263.852875 142.396683,271.016602 
	C150.784988,272.811035 152.045197,274.310333 152.045837,282.676971 
	C152.049240,326.330597 152.051376,369.984253 152.043915,413.637878 
	C152.042358,422.786438 148.846741,425.309814 139.958206,423.407501 
	C106.284119,416.200836 72.602455,409.029541 38.527050,401.751648 
M63.872066,269.529968 
	C57.950115,268.292114 52.028164,267.054260 45.917953,265.777039 
	C45.917953,306.902893 45.917953,347.317749 45.917953,387.898773 
	C76.298897,394.407196 106.457672,400.868011 136.868408,407.382812 
	C136.868408,366.374512 136.868408,325.926575 136.868408,285.173920 
	C112.740822,280.023102 88.712112,274.893372 63.872066,269.529968 
z"/>
<path fill="#040300" opacity="1.000000" stroke="none" 
	d="
M110.413246,229.678619 
	C122.486130,232.260117 134.179138,234.601181 145.818619,237.183578 
	C150.547379,238.232727 152.828354,242.041885 151.962662,246.518951 
	C151.193817,250.495209 147.692413,252.972473 142.841492,252.034348 
	C129.189529,249.394135 115.596001,246.448059 101.993912,243.554504 
	C80.792961,239.044464 59.607529,234.461456 38.407417,229.947433 
	C32.896561,228.774033 29.772711,225.273468 30.521227,220.892029 
	C31.352484,216.026260 35.352486,213.682266 41.033474,214.883209 
	C64.030991,219.744858 87.019821,224.647614 110.413246,229.678619 
z"/>
<path fill="#040202" opacity="1.000000" stroke="none" 
	d="
M126.086464,78.959793 
	C132.499176,90.414665 133.290131,102.008507 126.923050,114.114700 
	C113.878670,134.552017 91.039429,134.822968 77.771233,125.164192 
	C66.754051,117.144081 61.601933,106.156715 63.550499,92.632111 
	C65.649170,78.065651 74.274391,68.332138 88.398933,64.407555 
	C101.965591,60.637989 113.663879,64.743805 123.157722,75.099907 
	C123.943062,75.956573 124.611557,76.920334 125.641586,77.981720 
	C125.948837,78.129105 125.988190,78.054459 125.940559,78.280746 
	C125.892929,78.507034 126.086464,78.959793 126.086464,78.959793 
M84.537895,82.993469 
	C77.311775,90.591354 76.065895,99.563858 81.134407,107.504456 
	C85.864105,114.914246 95.165688,118.194130 103.415352,115.241417 
	C110.830200,112.587502 115.206345,107.295692 116.097870,99.463417 
	C117.013359,91.420677 113.914467,85.021988 106.970512,80.895073 
	C99.432472,76.415092 92.034950,77.295052 84.537895,82.993469 
z"/>
<path fill="#FB4311" opacity="1.000000" stroke="none" 
	d="
M126.249207,78.856705 
	C126.086464,78.959793 125.892929,78.507034 125.903458,78.260666 
	C126.079971,78.260742 126.245964,78.507179 126.249207,78.856705 
z"/>
<path fill="#BEE150" opacity="1.000000" stroke="none" 
	d="
M460.311310,192.710205 
	C432.446533,186.705505 404.990417,180.809280 377.341980,174.871750 
	C377.341980,169.950272 377.341980,165.180328 377.341980,159.790558 
	C407.876129,166.333450 438.156647,172.821976 468.561096,179.337067 
	C468.561096,184.346939 468.561096,188.959396 468.561096,194.168854 
	C465.789490,193.691605 463.254700,193.255142 460.311310,192.710205 
z"/>
<path fill="#634D73" opacity="1.000000" stroke="none" 
	d="
M302.870148,200.000000 
	C302.870117,219.980545 302.788788,239.461716 302.941589,258.941071 
	C302.970795,262.663422 302.186829,264.478394 298.092987,265.328918 
	C270.762299,271.007019 243.497879,277.004028 216.207169,282.875244 
	C214.766235,283.185211 213.281784,283.292999 211.129715,283.589752 
	C211.129715,281.748962 211.129715,280.155823 211.129715,278.562653 
	C211.129730,241.433075 211.201691,204.303162 211.033035,167.174347 
	C211.013321,162.836334 212.266022,161.334824 216.598099,160.443832 
	C243.608673,154.888367 270.538116,148.938736 297.499756,143.144424 
	C299.096924,142.801163 300.740112,142.672119 302.870239,142.371704 
	C302.870239,161.596802 302.870239,180.548401 302.870148,200.000000 
z"/>
<path fill="#E2F1F6" opacity="1.000000" stroke="none" 
	d="
M64.277733,269.646820 
	C88.712112,274.893372 112.740822,280.023102 136.868408,285.173920 
	C136.868408,325.926575 136.868408,366.374512 136.868408,407.382812 
	C106.457672,400.868011 76.298897,394.407196 45.917953,387.898773 
	C45.917953,347.317749 45.917953,306.902893 45.917953,265.777039 
	C52.028164,267.054260 57.950115,268.292114 64.277733,269.646820 
z"/>
<path fill="#DFEEF3" opacity="1.000000" stroke="none" 
	d="
M84.808945,82.747650 
	C92.034950,77.295052 99.432472,76.415092 106.970512,80.895073 
	C113.914467,85.021988 117.013359,91.420677 116.097870,99.463417 
	C115.206345,107.295692 110.830200,112.587502 103.415352,115.241417 
	C95.165688,118.194130 85.864105,114.914246 81.134407,107.504456 
	C76.065895,99.563858 77.311775,90.591354 84.808945,82.747650 
z"/>
</svg>